<svg xmlns="http://www.w3.org/2000/svg" width="375" viewBox="0 0 375 375" height="375" version="1.0"><defs><clipPath id="a"><path d="M 7 4.578125 L 97.5 4.578125 L 97.5 169 L 7 169 Z M 7 4.578125"/></clipPath><clipPath id="b"><path d="M 5 4.578125 L 97.5 4.578125 L 97.5 171 L 5 171 Z M 5 4.578125"/></clipPath><clipPath id="c"><path d="M 7 99 L 97.5 99 L 97.5 272 L 7 272 Z M 7 99"/></clipPath><clipPath id="d"><path d="M 5 98 L 97.5 98 L 97.5 274 L 5 274 Z M 5 98"/></clipPath><clipPath id="e"><path d="M 78 271 L 97.5 271 L 97.5 370.578125 L 78 370.578125 Z M 78 271"/></clipPath><clipPath id="f"><path d="M 76 269 L 97.5 269 L 97.5 370.578125 L 76 370.578125 Z M 76 269"/></clipPath><clipPath id="g"><path d="M 7 99 L 97.5 99 L 97.5 360 L 7 360 Z M 7 99"/></clipPath><clipPath id="h"><path d="M 5 98 L 97.5 98 L 97.5 362 L 5 362 Z M 5 98"/></clipPath><clipPath id="i"><path d="M 61 113 L 97.5 113 L 97.5 265 L 61 265 Z M 61 113"/></clipPath><clipPath id="j"><path d="M 88 57 L 97.5 57 L 97.5 102 L 88 102 Z M 88 57"/></clipPath><clipPath id="k"><path d="M 61 15 L 97.5 15 L 97.5 58 L 61 58 Z M 61 15"/></clipPath><clipPath id="l"><path d="M 78 271 L 97.5 271 L 97.5 368 L 78 368 Z M 78 271"/></clipPath></defs><g clip-path="url(#a)"><path fill="#C5E9DA" d="M 7.035156 99.871094 L 198.128906 -97.035156 L 476.554688 -28.019531 L 284.347656 168.828125 Z M 7.035156 99.871094"/></g><g clip-path="url(#b)"><path transform="matrix(3.80386 0 0 3.79661 -31.747 -166.225)" fill="none" stroke-linejoin="round" d="M 10.195468 70.087697 L 60.43224 18.223997 L 133.627791 36.40222 L 83.098348 88.250486 Z M 10.195468 70.087697" stroke="#36B37E" stroke-width=".977" stroke-miterlimit="10"/></g><g clip-path="url(#c)"><path fill="#FFF" d="M 167.289062 271.5 L 7.035156 99.875 L 284.347656 168.832031 Z M 167.289062 271.5"/></g><g clip-path="url(#d)"><path transform="matrix(3.80386 0 0 3.79661 -31.747 -166.225)" fill="none" stroke-linejoin="round" d="M 52.324732 115.293525 L 10.195468 70.088726 L 83.098348 88.251515 Z M 52.324732 115.293525" stroke="#36B37E" stroke-width=".977" stroke-miterlimit="10"/></g><g clip-path="url(#e)"><path fill="#C5E9DA" d="M 357.144531 435.066406 L 78.160156 360 L 167.292969 271.5 Z M 357.144531 435.066406"/></g><g clip-path="url(#f)"><path transform="matrix(3.80386 0 0 3.79661 -31.747 -166.225)" fill="none" stroke-linejoin="round" d="M 102.235971 158.375748 L 28.89357 138.603793 L 52.325759 115.293525 Z M 102.235971 158.375748" stroke="#36B37E" stroke-width=".977" stroke-miterlimit="10"/></g><g clip-path="url(#g)"><path fill="#FFF" d="M 7.035156 99.875 L 78.160156 359.996094 L 167.289062 271.5 Z M 7.035156 99.875"/></g><g clip-path="url(#h)"><path transform="matrix(3.80386 0 0 3.79661 -31.747 -166.225)" fill="none" stroke-linejoin="round" d="M 10.195468 70.088726 L 28.89357 138.602764 L 52.324732 115.293525 Z M 10.195468 70.088726" stroke="#36B37E" stroke-width=".977" stroke-miterlimit="10"/></g><g clip-path="url(#i)"><path fill="#36B37E" d="M 123.929688 128.96875 L 161.070312 264.804688 L 79.367188 177.230469 L 61.910156 113.390625 Z M 123.929688 128.96875"/></g><path fill="#172B4D" d="M 61.910156 113.390625 L 90.828125 85.445312 L 34.652344 71.191406 L 7.035156 99.875 Z M 61.910156 113.390625"/><g clip-path="url(#j)"><path fill="#172B4D" d="M 150.375 101.332031 L 177.3125 72.832031 L 116.0625 57.40625 L 88.355469 85.75 Z M 150.375 101.332031"/></g><g clip-path="url(#k)"><path fill="#172B4D" d="M 116.066406 57.410156 L 144.980469 29.464844 L 88.808594 15.210938 L 61.097656 43.554688 Z M 116.066406 57.410156"/></g><g clip-path="url(#l)"><path fill="#172B4D" d="M 159.839844 279.007812 L 167.292969 271.5 L 106.648438 367.929688 L 78.160156 359.996094 Z M 159.839844 279.007812"/></g></svg>